<mxfile host="app.diagrams.net" agent="Mozilla/5.0 (Windows NT 10.0; Win64; x64) AppleWebKit/537.36 (KHTML, like Gecko) Chrome/127.0.0.0 Safari/537.36" version="24.7.7">
  <diagram name="Página-1" id="qgAPE4w84VrL8WHSl0HN">
    <mxGraphModel grid="1" page="1" gridSize="10" guides="1" tooltips="1" connect="1" arrows="0" fold="1" pageScale="1" pageWidth="827" pageHeight="1169" background="#FFFFFF" math="0" shadow="0">
      <root>
        <mxCell id="0" />
        <mxCell id="1" parent="0" />
        <mxCell id="X79jmOF-r7kN4Himy_3Y-2" value="&lt;b&gt;&lt;i&gt;&lt;font face=&quot;Georgia&quot;&gt;Problema&lt;/font&gt;&lt;/i&gt;&lt;/b&gt;&lt;div&gt;&lt;br&gt;&lt;/div&gt;" style="rounded=1;whiteSpace=wrap;html=1;fillColor=#FFFFFF;" vertex="1" parent="1">
          <mxGeometry x="100" y="200" width="140" as="geometry" />
        </mxCell>
        <mxCell id="X79jmOF-r7kN4Himy_3Y-3" value="&lt;font face=&quot;Georgia&quot;&gt;&lt;b&gt;&lt;i&gt;Analisis&lt;/i&gt;&lt;/b&gt;&lt;/font&gt;" style="rounded=1;whiteSpace=wrap;html=1;fillColor=#FFFFFF;" vertex="1" parent="1">
          <mxGeometry x="310" y="70" width="140" as="geometry" />
        </mxCell>
        <mxCell id="X79jmOF-r7kN4Himy_3Y-4" value="&lt;div&gt;&lt;font face=&quot;Georgia&quot;&gt;&lt;b&gt;&lt;i&gt;Diseño&lt;/i&gt;&lt;/b&gt;&lt;/font&gt;&lt;/div&gt;" style="rounded=1;whiteSpace=wrap;html=1;fillColor=#FFFFFF;" vertex="1" parent="1">
          <mxGeometry x="530" y="190" width="140" as="geometry" />
        </mxCell>
        <mxCell id="X79jmOF-r7kN4Himy_3Y-5" value="&lt;div&gt;&lt;font face=&quot;Georgia&quot;&gt;&lt;b&gt;&lt;i&gt;Implementación&lt;/i&gt;&lt;/b&gt;&lt;/font&gt;&lt;/div&gt;" style="rounded=1;whiteSpace=wrap;html=1;fillColor=#FFFFFF;" vertex="1" parent="1">
          <mxGeometry x="530" y="410" width="140" as="geometry" />
        </mxCell>
        <mxCell id="X79jmOF-r7kN4Himy_3Y-6" value="&lt;div&gt;&lt;font face=&quot;Georgia&quot;&gt;&lt;b&gt;&lt;i&gt;Prueba&lt;/i&gt;&lt;/b&gt;&lt;/font&gt;&lt;/div&gt;" style="rounded=1;whiteSpace=wrap;html=1;fillColor=#FFFFFF;" vertex="1" parent="1">
          <mxGeometry x="320" y="500" width="140" as="geometry" />
        </mxCell>
        <mxCell id="X79jmOF-r7kN4Himy_3Y-7" value="&lt;div&gt;&lt;font face=&quot;Georgia&quot;&gt;&lt;b&gt;&lt;i&gt;Mantenimiento&lt;/i&gt;&lt;/b&gt;&lt;/font&gt;&lt;/div&gt;" style="rounded=1;whiteSpace=wrap;html=1;fillColor=#FFFFFF;" vertex="1" parent="1">
          <mxGeometry x="95" y="410" width="140" as="geometry" />
        </mxCell>
        <mxCell id="X79jmOF-r7kN4Himy_3Y-10" value="&lt;div&gt;Una empresa tiene un&amp;nbsp;&amp;nbsp;&lt;span style=&quot;background-color: initial;&quot;&gt;sistema de registro de usuarios en una pagina web, donde se utiliza java, esta pagina tiene limites en cuanto a su seguridad y usabilidad, los usuarios se quejan de una interfaz obsoleta y confusa, a demás de que el sistema de validación no es totalmente efectiva&lt;/span&gt;&lt;/div&gt;" style="rounded=1;whiteSpace=wrap;html=1;" vertex="1" parent="1">
          <mxGeometry x="89" y="200" width="165" height="180" as="geometry" />
        </mxCell>
        <mxCell id="X79jmOF-r7kN4Himy_3Y-11" value="Se analiza los requerimientos para implementar mejoras en el apartado visual, permitiendo una interfaz más intuitiva, a demás de agregar una autentificación de dos faces y también mejorar el sistema de validación" style="rounded=1;whiteSpace=wrap;html=1;arcSize=0;" vertex="1" parent="1">
          <mxGeometry x="302.5" y="80" width="155" height="150" as="geometry" />
        </mxCell>
        <mxCell id="X79jmOF-r7kN4Himy_3Y-12" value="Se diseña una clase para realizar la validación y se decide usar framework (Spring Boot) para el manejo de solicitudes de los registros, se maqueta una interfaz y se diseña un flujo de trabajo para poder verificar con google las cuentas de los usuarios" style="rounded=1;whiteSpace=wrap;html=1;" vertex="1" parent="1">
          <mxGeometry x="519.99" y="200" width="160" height="170" as="geometry" />
        </mxCell>
        <mxCell id="X79jmOF-r7kN4Himy_3Y-14" value="Se codifica la nueva clase y se integran las nuevas validaciones, se crea un controlador para manejar las solicitudes, se implementa el diseño de la web en base a la maquetación, y también la funcionalidad para la autentificación con Google" style="rounded=1;whiteSpace=wrap;html=1;arcSize=0;" vertex="1" parent="1">
          <mxGeometry x="510.62" y="420" width="178.75" height="160" as="geometry" />
        </mxCell>
        <mxCell id="X79jmOF-r7kN4Himy_3Y-16" value="Se comienza a probar con la validación de datos, para asegurar de que no se puedan realizar inyecciones entre otras cosas, a demás de probar la autentificación con Google, y con ayuda de usuarios se verifica si la interfaz es intuitiva y estética&amp;nbsp;" style="rounded=1;whiteSpace=wrap;html=1;" vertex="1" parent="1">
          <mxGeometry x="302.5" y="510" width="170" height="170" as="geometry" />
        </mxCell>
        <mxCell id="X79jmOF-r7kN4Himy_3Y-17" value="Se monitorean los informes sobre los errores, en caso de haber, y se corrigen en el sistema, pasado el tiempo se implementarán mejoras en base al feedback de los usuarios, como un sistema adicional de autentificación o mejoras para la experiencia de estos ultimos" style="rounded=1;whiteSpace=wrap;html=1;arcSize=0;" vertex="1" parent="1">
          <mxGeometry x="80.62" y="425" width="178.75" height="160" as="geometry" />
        </mxCell>
        <mxCell id="X79jmOF-r7kN4Himy_3Y-21" style="edgeStyle=orthogonalEdgeStyle;rounded=0;orthogonalLoop=1;jettySize=auto;html=1;exitX=0;exitY=0;exitDx=0;exitDy=0;" edge="1" parent="1" source="X79jmOF-r7kN4Himy_3Y-6" target="X79jmOF-r7kN4Himy_3Y-6">
          <mxGeometry relative="1" as="geometry" />
        </mxCell>
        <mxCell id="X79jmOF-r7kN4Himy_3Y-22" value="" style="endArrow=classic;html=1;rounded=0;" edge="1" parent="1">
          <mxGeometry width="50" height="50" relative="1" as="geometry">
            <mxPoint x="170" y="180" as="sourcePoint" />
            <mxPoint x="300" y="70" as="targetPoint" />
            <Array as="points">
              <mxPoint x="170" y="130" />
              <mxPoint x="200" y="80" />
              <mxPoint x="240" y="70" />
            </Array>
          </mxGeometry>
        </mxCell>
        <mxCell id="X79jmOF-r7kN4Himy_3Y-24" value="" style="endArrow=classic;html=1;rounded=0;" edge="1" parent="1">
          <mxGeometry width="50" height="50" relative="1" as="geometry">
            <mxPoint x="460" y="70" as="sourcePoint" />
            <mxPoint x="600" y="170" as="targetPoint" />
            <Array as="points">
              <mxPoint x="510" y="70" />
              <mxPoint x="560" y="80" />
              <mxPoint x="590" y="120" />
            </Array>
          </mxGeometry>
        </mxCell>
        <mxCell id="X79jmOF-r7kN4Himy_3Y-25" value="" style="endArrow=classic;html=1;rounded=0;" edge="1" parent="1">
          <mxGeometry width="50" height="50" relative="1" as="geometry">
            <mxPoint x="660" y="190" as="sourcePoint" />
            <mxPoint x="680" y="410" as="targetPoint" />
            <Array as="points">
              <mxPoint x="710" y="190" />
              <mxPoint x="760" y="200" />
              <mxPoint x="790" y="240" />
              <mxPoint x="790" y="320" />
              <mxPoint x="780" y="370" />
              <mxPoint x="740" y="400" />
            </Array>
          </mxGeometry>
        </mxCell>
        <mxCell id="X79jmOF-r7kN4Himy_3Y-29" value="" style="endArrow=classic;html=1;rounded=0;" edge="1" parent="1">
          <mxGeometry width="50" height="50" relative="1" as="geometry">
            <mxPoint x="520" y="410" as="sourcePoint" />
            <mxPoint x="410" y="480" as="targetPoint" />
            <Array as="points">
              <mxPoint x="480" y="410" />
              <mxPoint x="460" y="420" />
              <mxPoint x="430" y="440" />
            </Array>
          </mxGeometry>
        </mxCell>
        <mxCell id="X79jmOF-r7kN4Himy_3Y-30" value="" style="endArrow=classic;html=1;rounded=0;" edge="1" parent="1">
          <mxGeometry width="50" height="50" relative="1" as="geometry">
            <mxPoint x="370" y="480" as="sourcePoint" />
            <mxPoint x="240" y="410" as="targetPoint" />
            <Array as="points">
              <mxPoint x="350" y="440" />
              <mxPoint x="310" y="420" />
              <mxPoint x="280" y="410" />
            </Array>
          </mxGeometry>
        </mxCell>
        <mxCell id="X79jmOF-r7kN4Himy_3Y-31" value="" style="endArrow=classic;html=1;rounded=0;" edge="1" parent="1">
          <mxGeometry width="50" height="50" relative="1" as="geometry">
            <mxPoint x="90" y="410" as="sourcePoint" />
            <mxPoint x="110" y="190" as="targetPoint" />
            <Array as="points">
              <mxPoint x="40" y="400" />
              <mxPoint x="10" y="350" />
              <mxPoint x="10" y="290" />
              <mxPoint x="20" y="230" />
              <mxPoint x="50" y="200" />
              <mxPoint x="80" y="190" />
            </Array>
          </mxGeometry>
        </mxCell>
        <mxCell id="TT8DGzYPUM8LukXrVcri-2" value="&lt;h3&gt;&lt;b&gt;Ciclo Iterativo&lt;/b&gt;&lt;/h3&gt;&lt;div&gt;&lt;b&gt;&lt;font style=&quot;font-size: 8px;&quot;&gt;Jose David Angarita&lt;/font&gt;&lt;/b&gt;&lt;/div&gt;" style="ellipse;whiteSpace=wrap;html=1;" vertex="1" parent="1">
          <mxGeometry x="640" y="70" width="140" height="70" as="geometry" />
        </mxCell>
      </root>
    </mxGraphModel>
  </diagram>
</mxfile>
